<?xml version="1.0" encoding="UTF-8"?><svg id="Layer_1" xmlns="http://www.w3.org/2000/svg" width="66" height="66" viewBox="0 0 66 66"><defs><style>.cls-1{fill:#ccd6dd;}.cls-1,.cls-2,.cls-3,.cls-4,.cls-5{stroke-width:0px;}.cls-2{fill:#c1694f;}.cls-3{fill:#a0041e;}.cls-4{fill:#99aab5;}.cls-5{fill:#ffcc4d;}</style></defs><path class="cls-1" d="m50,33.86L8.7,5l-5.7,7.04.05,2.68,3.02.49.03,2.83,2.87.16.03,2.99,2.7-.17v3.11s3.14.13,3.14.13l-.32,2.93,3.31.15-.1,3.33,3.25-.08-.17,3.42,3.35-.14-.17,3.6,3.62-.04-.43,3.5,3.49-.35-.34,3.77,3.49-.51-.4,3.87,4.11-.79-.53,4.07,3.75-.38,4.94-11.37,4.3-5.39Z"/><path class="cls-4" d="m3,12.21l.05,2.67,2.99.48.03,2.81,2.84.16.03,2.98,2.67-.17v3.1s3.11.13,3.11.13l-.32,2.91,3.27.15-.09,3.32,3.21-.08-.16,3.41,3.31-.14-.17,3.58,3.58-.04-.42,3.49,3.44-.35-.33,3.75,3.45-.51-.4,3.85,4.06-.78-.52,4.06,3.7-.38,2.69-6.24L3.97,11l-.97,1.21Z"/><path class="cls-2" d="m60.44,41.1c-1.37-.77-3.04-1.58-4.01-2.06-.97-.48-1.12-2.09-3.22-3.62-1.81-1.32-2.4-.64-3.52-1.45-.8-.57-1.2-1.77-1.8-2.25-.6-.48-6.52-4.34-6.52-4.34-1.35-.96-2.1,0-2.85,1.37-.75,1.37-.68,2.13.23,2.81,1.5,1.13,1.57,2.17.75,4.34-.6,1.58-.75,4.42-.23,6.03.52,1.61.19,2.27-.15,3.86-.52,2.41-.37,3.38.67,4.5,1.05,1.13,7.15,5.82,7.79,6.51,1.72,1.85,2.3,3.85,3.68,4.88,1.17.88,2.19-.28,2.15-1.39-.04-1.06-.51-2.77-.06-3.82.9-2.09,1.95-1.53,3.22-3.7,1.27-2.17,1.5-4.1,1.72-5.14.23-1.04,1.02-1.45,2.62-1.85,1.26-.31,1.97-.61,2.08-1.78.1-1.11-.97-2.02-2.56-2.91Zm-6.91,4.15c-.57,2.61-2.32,5.47-3.97,6.47-1.65,1.01-4.33.25-3.98-1.64.27-1.47.62-2.91,1.06-4.33.53-1.74.76-2.61,1.16-5.02.36-2.14,2.28-2.78,3.96-2.08,1.48.62,2.68,2.36,1.76,6.6Z"/><path class="cls-3" d="m48.12,38.57c-.46.79-.47,2.63-.64,4.65-.1,1.24-.28,2.54-.47,3.77.11-.46.22-.94.36-1.48.46-1.77.66-2.65,1.01-5.1.31-2.18,2-2.82,3.47-2.11,1.3.63,2.35,2.4,1.54,6.7-.06.31-.13.61-.21.9.22-.55.42-1.17.52-1.79.33-2.04.59-3.53-.33-5.31-1.14-2.21-3.94-2.53-5.25-.24Z"/><path class="cls-5" d="m44,35c1.1,0,2-.9,2-2s-.9-2-2-2-2,.9-2,2,.9,2,2,2Z"/><path class="cls-5" d="m43,42c1.1,0,2-.9,2-2s-.9-2-2-2-2,.9-2,2,.9,2,2,2Z"/><path class="cls-5" d="m43,50c1.1,0,2-.9,2-2s-.9-2-2-2-2,.9-2,2,.9,2,2,2Z"/></svg>